<svg width="110" height="30" viewBox="0 0 110 30" fill="none" xmlns="http://www.w3.org/2000/svg">
<path d="M43.6719 0.18222H52.6006V1.8222H45.8585V6.80287H52.1147V8.44284H45.8585V15.2457H43.6719V0.18222Z" fill="#971238"/>
<path d="M60.9228 0.18222H58.7969V15.2457H60.9228V0.18222Z" fill="#971238"/>
<path d="M67.8477 0.364429C68.941 0.18221 70.4595 0.06073 71.9172 0.06073C74.2253 0.06073 75.6831 0.425169 76.7157 1.27553C77.566 1.94367 77.9912 2.97624 77.9912 4.1303C77.9912 6.13472 76.5942 7.41025 74.8935 7.95691V8.01765C76.169 8.44283 76.9586 9.47541 77.3231 11.0546C77.8697 13.1805 78.2342 14.5776 78.5986 15.185H76.412C76.169 14.7598 75.7438 13.4842 75.3187 11.6013C74.8327 9.53615 73.9216 8.74653 71.978 8.68579H69.9736V15.185H67.8477V0.364429ZM69.9736 7.22803H72.1602C74.4683 7.22803 75.8653 6.07398 75.8653 4.37326C75.8653 2.42958 74.3468 1.57923 72.0387 1.57923C71.0061 1.57923 70.2773 1.63997 69.9128 1.76145V7.22803H69.9736Z" fill="#971238"/>
<path d="M83.9433 12.8769C84.9152 13.4235 86.3122 13.8487 87.7699 13.8487C89.9566 13.8487 91.2321 12.8161 91.2321 11.2976C91.2321 9.9006 90.321 9.11098 88.1344 8.32136C85.4618 7.471 83.7611 6.19547 83.7611 4.06957C83.7611 1.70072 85.887 0 89.1062 0C90.8069 0 92.0217 0.364439 92.7506 0.728878L92.1432 2.30812C91.5966 2.06516 90.5032 1.57924 88.9847 1.57924C86.7374 1.57924 85.887 2.79403 85.887 3.82661C85.887 5.22363 86.9196 5.95251 89.167 6.74212C91.961 7.71396 93.358 8.92876 93.358 11.1761C93.358 13.4842 91.4751 15.4887 87.5877 15.4887C86.0085 15.4887 84.247 15.0635 83.3359 14.5168L83.9433 12.8769Z" fill="#971238"/>
<path d="M102.651 1.8222H97.6094V0.18222H109.879V1.8222H104.837V15.2457H102.651V1.8222Z" fill="#971238"/>
<path d="M44.8263 25.9359L43.733 29.2766H42.3359L45.9803 18.6471H47.6203L51.2647 29.2766H49.8069L48.6529 25.9359H44.8263ZM48.3492 24.8426L47.3166 21.8056C47.0736 21.1375 46.9522 20.4693 46.7699 19.8619H46.7092C46.527 20.4693 46.4055 21.1375 46.1626 21.8056L45.13 24.8426H48.3492Z" fill="#B5B5BD"/>
<path d="M60.2542 28.9122C59.7683 29.1551 58.7357 29.3981 57.4601 29.3981C54.4839 29.3981 52.1758 27.5152 52.1758 23.9922C52.1758 20.6515 54.4232 18.4042 57.7031 18.4042C59.0394 18.4042 59.8897 18.7079 60.2542 18.8901L59.9505 19.9834C59.4038 19.7405 58.6749 19.5582 57.8246 19.5582C55.3343 19.5582 53.6943 21.1375 53.6943 23.9315C53.6943 26.5433 55.2128 28.1833 57.7638 28.1833C58.6142 28.1833 59.4646 28.0011 60.0112 27.7581L60.2542 28.9122Z" fill="#B5B5BD"/>
<path d="M63.6544 25.9359L62.5611 29.2766H61.1641L64.8085 18.6471H66.4484L70.0928 29.2766H68.6351L67.481 25.9359H63.6544ZM67.1773 24.8426L66.1447 21.8056C65.9018 21.1375 65.7803 20.4693 65.5981 19.8619H65.5373C65.3551 20.4693 65.2336 21.1375 64.9907 21.8056L63.9581 24.9033H67.1773V24.8426Z" fill="#B5B5BD"/>
<path d="M71.6113 18.7686C72.4617 18.6471 73.4335 18.5257 74.5268 18.5257C76.5313 18.5257 77.9283 19.0116 78.8394 19.8619C79.8112 20.7123 80.3579 21.9878 80.3579 23.6886C80.3579 25.45 79.8112 26.847 78.8394 27.8189C77.8675 28.7907 76.2276 29.3374 74.1624 29.3374C73.1906 29.3374 72.3402 29.2766 71.6721 29.2159V18.7686H71.6113ZM73.0083 28.1833C73.3728 28.244 73.8587 28.244 74.4054 28.244C77.3209 28.244 78.9609 26.6041 78.9609 23.7493C78.9609 21.259 77.5638 19.619 74.6483 19.619C73.9194 19.619 73.3728 19.6797 73.0691 19.7405V28.1833H73.0083Z" fill="#B5B5BD"/>
<path d="M87.6465 24.2352H83.5162V28.1226H88.1324V29.2766H82.1191V18.5864H87.8894V19.7405H83.5162V23.1419H87.6465V24.2352Z" fill="#B5B5BD"/>
<path d="M98.885 24.5996C98.8243 23.1419 98.7028 21.3197 98.7028 19.9834H98.642C98.2776 21.2589 97.8524 22.5345 97.3058 24.053L95.4228 29.2159H94.3902L92.6895 24.1745C92.2036 22.656 91.7784 21.3197 91.4747 20.0441H91.414C91.3533 21.3804 91.2925 23.1419 91.2318 24.7211L90.9281 29.2766H89.5918L90.3207 18.6471H92.0821L93.9043 23.81C94.3295 25.1463 94.6939 26.3003 94.9976 27.3937H95.0584C95.3013 26.3003 95.7265 25.1463 96.1517 23.81L98.0346 18.6471H99.7961L100.464 29.2766H99.128L98.885 24.5996Z" fill="#B5B5BD"/>
<path d="M104.958 29.2766V24.7819L101.617 18.6471H103.196L104.715 21.5626C105.14 22.3523 105.444 23.0204 105.747 23.7493H105.808C106.112 23.0811 106.476 22.3523 106.902 21.5626L108.42 18.6471H109.999L106.416 24.7819V29.3373H104.958V29.2766Z" fill="#B5B5BD"/>
<path d="M11.7824 25.3893L10.2031 29.3981H18.2208L19.7393 25.3893H11.7824Z" fill="#B5B5BD"/>
<path d="M25.9974 7.65323H18.3442L15.125 16.7035H21.5634L24.8434 26.1181L26.1189 29.3981H34.0151L25.9974 7.65323Z" fill="#B5B5BD"/>
<path d="M11.0545 0L10.5078 1.45776H28.4261L29.0942 0H11.0545Z" fill="#971238"/>
<path d="M10.0818 2.55109L9.53516 4.00884H27.2105L27.8786 2.55109H10.0818Z" fill="#971238"/>
<path d="M9.11092 5.10214L8.625 6.49916H25.9359L26.6647 5.10214H9.11092Z" fill="#971238"/>
<path d="M8.199 7.65323L7.65234 9.05025H16.2167L16.7633 7.65323H8.199Z" fill="#971238"/>
<path d="M7.2283 10.2043L6.68164 11.6013H15.246L15.7926 10.2043H7.2283Z" fill="#971238"/>
<path d="M6.25564 12.7554L5.70898 14.1524H14.2733L14.82 12.7554H6.25564Z" fill="#971238"/>
<path d="M5.28475 15.2457L4.79883 16.7035H13.3631L13.8491 15.2457H5.28475Z" fill="#971238"/>
<path d="M3.82617 19.2545H21.0763L20.5296 17.7968H4.37283L3.82617 19.2545Z" fill="#971238"/>
<path d="M2.85547 21.8056H21.9885L21.4419 20.3479H3.40213" fill="#971238"/>
<path d="M1.88281 24.2959H22.8988L22.4129 22.8989H2.42947" fill="#971238"/>
<path d="M0.972656 26.847H9.59772L10.2051 25.45H1.51932" fill="#971238"/>
<path d="M0 29.3981H8.50358L9.11098 28.0011H0.546659" fill="#971238"/>
</svg>
